<svg xmlns="http://www.w3.org/2000/svg" viewBox="0 0 109.9 112.1"><defs><style>.cls-1{fill:#e9ecef;}.cls-2{fill:#4caf50;}.cls-3{fill:#f06;}</style></defs><title>lightlogo</title><g id="Layer_2" data-name="Layer 2"><g id="Layer_1-2" data-name="Layer 1"><g id="Layer_2-2" data-name="Layer 2"><g id="Layer_14" data-name="Layer 14"><path class="cls-1" d="M91.5,79.1a21.05,21.05,0,0,0-2.5-.2H59.3V66.2a3.9,3.9,0,0,1,3.9-3.9h37.4a1.84,1.84,0,0,1,1.9,1.9v4.2a.43.43,0,0,0,.4.4h6.6a.43.43,0,0,0,.4-.4h0V62c0-.4-.1-.7-.1-1.1h0a6.36,6.36,0,0,0-.6-1.8h0c0-.1-.1-.2-.1-.3v-.1l-.1-.3v-.1l-.2-.3h0c-.1-.1-.1-.2-.2-.3h0c-.1-.1-.1-.2-.2-.2a.1.1,0,0,0-.1-.1c0-.1-.1-.1-.1-.2l-.1-.1-.2-.2a.1.1,0,0,0-.1-.1l-.2-.3a8.25,8.25,0,0,0-5.8-2.4H63.1A11.59,11.59,0,0,0,57,55.7a9.51,9.51,0,0,0-2,1.5,14.91,14.91,0,0,0-2-1.5,11.17,11.17,0,0,0-6.1-1.6H8.4a8.43,8.43,0,0,0-5.8,2.4c-.1.1-.2.2-.2.3l-.1.1-.2.1-.1.1-.2.2-.1.1-.2.2h0l-.2.3h0l-.2.3v.1c0,.1-.1.2-.1.3v.1c0,.1-.1.2-.1.3h0a6.36,6.36,0,0,0-.6,1.8h0L0,62v5.9a.9.9,0,0,0,.9.9H6.5a.9.9,0,0,0,.9-.9h0V64.2a1.9,1.9,0,0,1,1.9-1.9H46.8a3.9,3.9,0,0,1,3.9,3.9V79H21a21.05,21.05,0,0,0-2.5.2A21,21,0,0,0,.1,100a11.58,11.58,0,0,0,1.7,6,13.91,13.91,0,0,0,4.3,4.4,11.58,11.58,0,0,0,6,1.7h31a8.23,8.23,0,0,0,4.5-1.4l.4-.3h0l.4-.3.1-.1.3-.3.1-.1.4-.4h0l.4-.4.1-.1.3-.3.1-.1.4-.4v4.2H59v-4.2l.4.4.1.1.3.3.1.1.4.4h0l.4.4.1.1.3.3.1.1.4.3h0l.4.3a8,8,0,0,0,4.5,1.4h31a11.58,11.58,0,0,0,6-1.7,13.22,13.22,0,0,0,4.4-4.4,10.62,10.62,0,0,0,1.6-6,20.48,20.48,0,0,0-18-20.9Zm-82,23.5a4,4,0,0,1-1.2-2.7A12.89,12.89,0,0,1,21.1,87.1H50.8v16.6H12.2A3.17,3.17,0,0,1,9.5,102.6Zm91,0a4,4,0,0,1-2.7,1.2H59.2V87.1H88.9a12.89,12.89,0,0,1,12.8,12.8A3.57,3.57,0,0,1,100.5,102.6Z"/><path class="cls-2" d="M21.7,9.9C40.3,11,53.1,24.3,48.6,44.6,32.2,46.7,17.7,28.2,21.7,9.9Z"/><path class="cls-3" d="M57.2,49.7C47.3,24.2,61.1,3.5,84.3,0,93.5,23.6,80.3,43.9,57.2,49.7Z"/></g></g></g></g></svg>