<svg xmlns="http://www.w3.org/2000/svg" xmlns:xlink="http://www.w3.org/1999/xlink" viewBox="0 0 109.71 111.97"><defs><style>.cls-1{fill:url(#linear-gradient);}.cls-2{fill:#4caf50;}.cls-3{fill:#f06;}</style><linearGradient id="linear-gradient" y1="83.05" x2="109.71" y2="83.05" gradientUnits="userSpaceOnUse"><stop offset="0.16" stop-color="#191a2d"/><stop offset="0.38" stop-color="#191a2d"/><stop offset="0.57" stop-color="#191a2d"/><stop offset="1" stop-color="#f06"/></linearGradient></defs><title>logoAsset 1</title><g id="Layer_2" data-name="Layer 2"><g id="Layer_1-2" data-name="Layer 1"><path class="cls-1" d="M91.3,79.12A21.21,21.21,0,0,0,88.77,79H59.05V66.2a3.93,3.93,0,0,1,3.89-3.89h37.47a1.92,1.92,0,0,1,1.92,1.91v4.16a.42.42,0,0,0,.41.41h6.55a.41.41,0,0,0,.41-.41l0-6.42a8,8,0,0,0-.12-1.1v0A8.19,8.19,0,0,0,109,59h0c0-.1-.09-.21-.14-.31l0-.06-.14-.25,0-.07-.15-.27,0,0-.2-.3,0,0-.17-.23-.07-.09-.14-.18-.08-.09a.93.93,0,0,0-.16-.18.27.27,0,0,0-.07-.08l-.23-.25a8.17,8.17,0,0,0-5.79-2.4H62.94a11.78,11.78,0,0,0-6.13,1.65,13.55,13.55,0,0,0-2,1.47,12.93,12.93,0,0,0-2-1.47,11.78,11.78,0,0,0-6.13-1.65H8.18a8.17,8.17,0,0,0-5.79,2.4,2.73,2.73,0,0,0-.23.25.27.27,0,0,0-.07.08.93.93,0,0,0-.16.18l-.08.09-.14.18-.07.09-.17.23,0,0-.2.3,0,0-.16.27a.25.25,0,0,1,0,.07l-.13.25,0,.06c0,.1-.1.21-.14.31h0a8.19,8.19,0,0,0-.57,1.84v0A8,8,0,0,0,0,62l0,5.93a.89.89,0,0,0,.89.9H6.48a.9.9,0,0,0,.89-.89V64.22A1.92,1.92,0,0,1,9.3,62.31H46.77a3.91,3.91,0,0,1,3.88,3.89V79H20.94a21.21,21.21,0,0,0-2.53.16A20.93,20.93,0,0,0,0,99.9a11.44,11.44,0,0,0,1.65,6A12.47,12.47,0,0,0,6,110.32a11.43,11.43,0,0,0,6,1.65H43a8,8,0,0,0,4.46-1.37l.43-.29h0l0,0,.42-.3.13-.1.34-.26.11-.09.43-.37,0,0,.38-.36.12-.12.29-.29.11-.12.38-.42V112H59v-4.15l.38.42.11.12.29.29.12.12.38.36,0,0,.43.37.11.09.34.26.13.1.42.3,0,0h0l.43.29A8,8,0,0,0,66.71,112H97.65a11.43,11.43,0,0,0,6-1.65,12.47,12.47,0,0,0,4.39-4.39,11.44,11.44,0,0,0,1.65-6A20.93,20.93,0,0,0,91.3,79.12Zm-82,23.52A3.73,3.73,0,0,1,8.18,99.9,12.77,12.77,0,0,1,20.94,87.14H50.65v16.65H12.06A3.73,3.73,0,0,1,9.32,102.64Zm91.07,0a3.75,3.75,0,0,1-2.74,1.15H59.05V87.14H88.77A12.77,12.77,0,0,1,101.53,99.9,3.73,3.73,0,0,1,100.39,102.64Z"/><path class="cls-2" d="M21.51,9.84c18.6,1,31.4,14.35,26.9,34.76C32,46.73,17.52,28.15,21.51,9.84Z"/><path class="cls-3" d="M57.05,49.74C47.13,24.21,61,3.56,84.11,0,93.34,23.62,80.16,43.94,57.05,49.74Z"/></g></g></svg>