<svg xmlns="http://www.w3.org/2000/svg" xmlns:xlink="http://www.w3.org/1999/xlink" viewBox="0 0 91.26 91.26"><defs><style>.cls-1{fill:url(#linear-gradient);}.cls-2{fill:#e9ecef;}.cls-3{fill:#4caf50;}.cls-4{fill:#f06;}</style><linearGradient id="linear-gradient" y1="45.63" x2="91.26" y2="45.63" gradientUnits="userSpaceOnUse"><stop offset="0.16" stop-color="#191a2d"/><stop offset="0.38" stop-color="#191a2d"/><stop offset="0.57" stop-color="#191a2d"/><stop offset="1" stop-color="#f06"/></linearGradient></defs><title>logohttps</title><g id="Layer_2" data-name="Layer 2"><g id="Layer_1-2" data-name="Layer 1"><circle class="cls-1" cx="45.63" cy="45.63" r="45.63"/><g id="Layer_2-2" data-name="Layer 2"><g id="Layer_14" data-name="Layer 14"><path class="cls-2" d="M66.45,54.66A11.49,11.49,0,0,0,65,54.54H48.11V47.31a2.23,2.23,0,0,1,2.22-2.22h21.3a1,1,0,0,1,1.08,1.08v2.39a.25.25,0,0,0,.23.23H76.7a.25.25,0,0,0,.23-.23h0V44.92c0-.23-.06-.4-.06-.63h0a3.71,3.71,0,0,0-.34-1h0c0-.06-.06-.12-.06-.17V43l-.06-.17v-.06l-.11-.17h0c-.06-.06-.06-.11-.11-.17h0c-.06-.06-.06-.11-.12-.11s0-.06,0-.06-.06-.06-.06-.11l-.06-.06L75.79,42a.05.05,0,0,0-.06,0l-.11-.17a4.69,4.69,0,0,0-3.31-1.37h-22a6.55,6.55,0,0,0-3.47.91,5.18,5.18,0,0,0-1.14.86,8.1,8.1,0,0,0-1.14-.86A6.31,6.31,0,0,0,41,40.42H19.12a4.78,4.78,0,0,0-3.31,1.37c-.05.05-.11.11-.11.17l-.06,0-.11.06-.06.06-.11.11-.06.06-.11.11h0l-.12.17h0l-.11.17v.06c0,.06-.06.12-.06.17V43c0,.06-.06.11-.06.17h0a3.66,3.66,0,0,0-.34,1h0l-.17.68v3.36a.51.51,0,0,0,.51.51H18a.51.51,0,0,0,.52-.51h0V46.17a1.08,1.08,0,0,1,1.08-1.08H41a2.23,2.23,0,0,1,2.22,2.22V54.6H26.29a11.33,11.33,0,0,0-1.42.12A11.94,11.94,0,0,0,14.39,66.56a6.58,6.58,0,0,0,1,3.42,7.84,7.84,0,0,0,2.45,2.51,6.63,6.63,0,0,0,3.41,1H38.88a4.67,4.67,0,0,0,2.56-.79l.23-.17h0l.23-.17.06-.06.17-.17,0-.06.23-.23h0l.23-.23.06,0,.17-.17.05-.06.23-.23v2.39h4.79V71.06l.22.23.06.06.17.17.06,0,.23.23h0l.22.23.06.06.17.17.06.06.23.17h0l.23.17a4.55,4.55,0,0,0,2.56.79H69.86a6.64,6.64,0,0,0,3.42-1A7.53,7.53,0,0,0,75.79,70a6.09,6.09,0,0,0,.91-3.42,11.66,11.66,0,0,0-10.25-11.9ZM19.74,68a2.23,2.23,0,0,1-.68-1.53,7.34,7.34,0,0,1,7.29-7.29H43.27v9.45h-22A1.79,1.79,0,0,1,19.74,68Zm51.83,0a2.24,2.24,0,0,1-1.53.69h-22V59.22H65a7.34,7.34,0,0,1,7.29,7.29A2,2,0,0,1,71.57,68Z"/><path class="cls-3" d="M26.69,15.24C37.29,15.87,44.58,23.45,42,35,32.67,36.2,24.41,25.67,26.69,15.24Z"/><path class="cls-4" d="M46.91,37.91C41.27,23.39,49.13,11.6,62.35,9.61,67.59,23.05,60.07,34.61,46.91,37.91Z"/></g></g></g></g></svg>