<svg xmlns="http://www.w3.org/2000/svg" xmlns:xlink="http://www.w3.org/1999/xlink" viewBox="0 0 91.26 91.26"><defs><style>.cls-1{fill:url(#linear-gradient);}.cls-2{fill:#fff;}</style><linearGradient id="linear-gradient" y1="45.63" x2="91.26" y2="45.63" gradientUnits="userSpaceOnUse"><stop offset="0.16" stop-color="#191a2d"/><stop offset="0.38" stop-color="#191a2d"/><stop offset="0.57" stop-color="#191a2d"/><stop offset="1" stop-color="#f06"/></linearGradient></defs><title>logo</title><g id="Layer_2" data-name="Layer 2"><g id="Layer_1-2" data-name="Layer 1"><circle class="cls-1" cx="45.63" cy="45.63" r="45.63"/><path class="cls-2" d="M68.4,45a2.45,2.45,0,0,0-.25-.75s0-.08,0-.13v0l0-.12v0L68,43.8s0-.08-.09-.12,0-.08-.08-.08,0-.05,0-.05,0,0,0-.08l0,0-.09-.08s0-.05,0-.05l-.08-.12a3.45,3.45,0,0,0-2.41-1H49a4.79,4.79,0,0,0-2.53.67,3.74,3.74,0,0,0-.83.62,6.4,6.4,0,0,0-.83-.62,4.63,4.63,0,0,0-2.53-.67h-16a3.54,3.54,0,0,0-2.41,1s-.08.08-.08.12l0,.05-.08,0,0,0-.09.08,0,0-.08.09-.09.12-.08.13v0s0,.08,0,.12v0s0,.09,0,.13a2.45,2.45,0,0,0-.25.75l-.13.49v2.45a.38.38,0,0,0,.38.38h2.32a.38.38,0,0,0,.38-.38V46.38a.79.79,0,0,1,.79-.79H42.25a1.62,1.62,0,0,1,1.62,1.62v5.31H31.53a8.93,8.93,0,0,0-1,.08,8.71,8.71,0,0,0-7.64,8.64,4.88,4.88,0,0,0,.7,2.49,5.8,5.8,0,0,0,1.79,1.83,4.75,4.75,0,0,0,2.49.7H40.71a3.38,3.38,0,0,0,1.87-.58l.16-.12.17-.13,0,0,.13-.12,0,0,.16-.17.17-.17,0,0,.13-.12,0,0,.16-.17v1.74h3.49V64.52l.17.17,0,0,.12.12,0,0,.17.17.17.17,0,0,.12.12,0,0,.17.13.17.12a3.26,3.26,0,0,0,1.87.58H63.3a4.78,4.78,0,0,0,2.49-.7,5.49,5.49,0,0,0,1.82-1.83,4.41,4.41,0,0,0,.67-2.49,8.51,8.51,0,0,0-7.48-8.68,8.93,8.93,0,0,0-1-.08H47.44V47.21a1.62,1.62,0,0,1,1.61-1.62H64.58a.76.76,0,0,1,.79.79v1.74a.19.19,0,0,0,.17.17h2.74a.18.18,0,0,0,.16-.17V45.46C68.44,45.3,68.4,45.17,68.4,45ZM43.91,62.78h-16a1.32,1.32,0,0,1-1.12-.46,1.66,1.66,0,0,1-.5-1.12,5.36,5.36,0,0,1,5.32-5.32H43.91Zm15.82-6.9A5.35,5.35,0,0,1,65,61.2a1.5,1.5,0,0,1-.5,1.12,1.64,1.64,0,0,1-1.12.5h-16V55.88Z"/><path class="cls-2" d="M43,38.24c1.87-8.43-3.44-14-11.17-14.41C30.16,31.43,36.18,39.11,43,38.24Z"/><path class="cls-2" d="M57.82,19.72c-9.64,1.45-15.37,10.05-11.26,20.64C56.15,38,61.64,29.52,57.82,19.72Z"/></g></g></svg>